<svg width="20" height="19" viewBox="0 0 20 19" fill="none" xmlns="http://www.w3.org/2000/svg">
<path d="M10 18.1094C14.7548 18.1094 18.6094 14.2548 18.6094 9.5C18.6094 4.74517 14.7548 0.890625 10 0.890625C5.24517 0.890625 1.39062 4.74517 1.39062 9.5C1.39062 14.2548 5.24517 18.1094 10 18.1094Z" fill="url(#paint0_linear_88_2082)"/>
<path d="M10 0.890625C8.29723 0.890625 6.6327 1.39556 5.21689 2.34157C3.80109 3.28758 2.6976 4.63218 2.04598 6.20533C1.39436 7.77849 1.22386 9.50955 1.55606 11.1796C1.88825 12.8497 2.70821 14.3837 3.91226 15.5877C5.1163 16.7918 6.65034 17.6118 8.3204 17.9439C9.99045 18.2761 11.7215 18.1056 13.2947 17.454C14.8678 16.8024 16.2124 15.6989 17.1584 14.2831C18.1044 12.8673 18.6094 11.2028 18.6094 9.5C18.6068 7.21745 17.6989 5.02913 16.0849 3.41512C14.4709 1.80111 12.2826 0.893218 10 0.890625ZM18.0052 9.08912C15.4666 7.90158 12.6946 7.29644 9.89194 7.31797C9.89254 7.30669 9.89194 7.29659 9.89254 7.28531C9.9133 6.2258 10.2435 5.19549 10.8425 4.32131C11.5251 3.43791 12.4067 2.72829 13.4156 2.25031C14.7269 2.86947 15.846 3.83223 16.6541 5.03635C17.4622 6.24047 17.9291 7.64097 18.0052 9.08912ZM12.7164 1.95908C11.7922 2.45339 10.9874 3.14394 10.3583 3.98228C9.69362 4.94675 9.32552 6.08458 9.29938 7.25563C9.29819 7.28323 9.29938 7.30758 9.29789 7.33489C8.38119 7.38216 7.4699 7.50449 6.57318 7.70064C6.54497 7.70658 6.51677 7.71459 6.48857 7.72083C6.73923 5.507 7.54357 3.39199 8.82735 1.57106C10.1358 1.37669 11.4721 1.51001 12.7164 1.95908ZM8.00204 1.73642C6.81818 3.58334 6.09023 5.68518 5.87819 7.86867C5.32633 8.01503 4.78216 8.18902 4.24775 8.38998C4.18267 7.90969 4.02179 7.44736 3.77466 7.03041C3.52753 6.61347 3.19919 6.25039 2.8091 5.96273C3.32072 4.92694 4.0493 4.01341 4.94535 3.28421C5.84139 2.55501 6.8839 2.02693 8.00204 1.73642ZM2.84443 13.1053C2.36944 12.1667 2.08539 11.1432 2.00872 10.094C2.57272 9.77192 3.15476 9.48249 3.75197 9.22717C3.88378 10.5845 3.56483 11.9474 2.84443 13.1053ZM1.98646 9.42638C1.9947 8.42865 2.19026 7.44134 2.56299 6.51581C2.87959 6.77339 3.14183 7.09132 3.33448 7.45113C3.52713 7.81095 3.64634 8.20546 3.68518 8.61175C3.10461 8.85257 2.53775 9.12451 1.98646 9.42638ZM3.17544 13.6984C4.11232 12.3192 4.5218 10.6491 4.3291 8.99294C4.82231 8.80373 5.32284 8.63906 5.83069 8.49894C5.6473 11.6576 6.55347 14.7835 8.39777 17.3544C7.32396 17.1333 6.30673 16.6949 5.40864 16.0661C4.51054 15.4373 3.75056 14.6318 3.17544 13.6984ZM9.2308 17.4779C7.19566 14.887 6.19865 11.6308 6.43424 8.34456C6.5233 8.32348 6.61147 8.30003 6.70054 8.28073C7.55201 8.09431 8.41714 7.97687 9.2875 7.92953C9.30443 10.5744 10.2577 12.0751 11.5984 13.2902C12.2313 13.8403 12.8949 14.3541 13.586 14.8292C14.0238 15.1433 14.4736 15.4675 14.9243 15.8172C13.5193 16.9187 11.7853 17.5167 10 17.5156C9.74325 17.5153 9.48636 17.5027 9.2308 17.4779ZM15.3898 15.428C14.897 15.0406 14.4071 14.6876 13.9321 14.3471C13.2478 13.878 12.5917 13.369 11.9671 12.8229C10.7285 11.6889 9.89343 10.322 9.88066 7.91261C12.6952 7.89048 15.4769 8.51834 18.0091 9.7473C17.9767 10.8216 17.728 11.8784 17.278 12.8544C16.8279 13.8304 16.1857 14.7057 15.3898 15.428Z" fill="url(#paint1_linear_88_2082)"/>
<defs>
<linearGradient id="paint0_linear_88_2082" x1="10" y1="0.890625" x2="10" y2="18.1094" gradientUnits="userSpaceOnUse">
<stop stop-color="#FF7047"/>
<stop offset="1" stop-color="#E63811"/>
</linearGradient>
<linearGradient id="paint1_linear_88_2082" x1="10" y1="18.1094" x2="10" y2="0.890625" gradientUnits="userSpaceOnUse">
<stop stop-color="#000406"/>
<stop offset="1" stop-color="#001521"/>
</linearGradient>
</defs>
</svg>
