<svg width="19" height="19" viewBox="0 0 19 19" fill="none" xmlns="http://www.w3.org/2000/svg">
<path d="M15.4375 7.12506C15.4381 6.17075 15.2087 5.23036 14.7687 4.38355C14.3287 3.53673 13.691 2.80846 12.9098 2.26042C12.1285 1.71239 11.2267 1.36073 10.2807 1.23526C9.33464 1.10979 8.37232 1.21419 7.47521 1.53963C6.57811 1.86506 5.77267 2.40194 5.12712 3.10477C4.48158 3.8076 4.01495 4.65568 3.76678 5.57715C3.51861 6.49862 3.49621 7.46634 3.70147 8.39831C3.90673 9.33028 4.33361 10.199 4.94594 10.931C5.9511 12.0842 6.51306 13.5575 6.53125 15.0872V15.4376H12.4687V15.0516C12.4728 13.5631 13.0123 12.1258 13.9887 11.0022C14.9248 9.92767 15.4395 8.55016 15.4375 7.12506Z" fill="#F6E17F"/>
<path d="M6.53125 15.4375H12.4688C12.4688 16.0674 12.2185 16.6715 11.7731 17.1169C11.3277 17.5623 10.7236 17.8125 10.0938 17.8125H8.90625C8.27636 17.8125 7.67227 17.5623 7.22687 17.1169C6.78147 16.6715 6.53125 16.0674 6.53125 15.4375Z" fill="#68818C"/>
<path d="M12.4688 13.0625H6.53125C6.20333 13.0625 5.9375 13.3283 5.9375 13.6562V14.8438C5.9375 15.1717 6.20333 15.4375 6.53125 15.4375H12.4688C12.7967 15.4375 13.0625 15.1717 13.0625 14.8438V13.6562C13.0625 13.3283 12.7967 13.0625 12.4688 13.0625Z" fill="#8F9DA5"/>
<path d="M8.75164 0.635287C7.57947 0.76995 6.46568 1.21962 5.52858 1.93654C4.59149 2.65345 3.8661 3.61082 3.42948 4.70693C2.99286 5.80305 2.86132 6.99697 3.04883 8.16185C3.23635 9.32673 3.73591 10.4191 4.49445 11.3228C4.92687 11.8446 5.27359 12.4318 5.52164 13.0625C5.26633 13.4781 5.34351 13.8165 5.34351 14.8734C5.34523 15.0895 5.40585 15.3009 5.51884 15.4851C5.63184 15.6692 5.79293 15.819 5.98476 15.9184C6.09858 16.6117 6.45458 17.2422 6.98946 17.6977C7.52435 18.1532 8.20345 18.4043 8.90601 18.4062H10.0935C10.8004 18.4031 11.4831 18.1479 12.0186 17.6864C12.5541 17.2249 12.9073 16.5874 13.0148 15.8887C13.2066 15.7894 13.3677 15.6395 13.4807 15.4554C13.5937 15.2712 13.6543 15.0598 13.656 14.8437C13.656 13.8047 13.7332 13.4365 13.466 13.015C13.6936 12.4233 14.0209 11.8751 14.4338 11.394C15.293 10.3994 15.8321 9.16871 15.9807 7.8628C16.1293 6.55689 15.8804 5.23654 15.2666 4.07434C14.6528 2.91214 13.7026 1.96217 12.5403 1.3486C11.3779 0.735041 10.0575 0.486436 8.75164 0.635287ZM12.4685 13.6562V14.8437H6.53101V13.6562H12.4685ZM10.0935 17.2187H8.90601C8.53852 17.2177 8.18033 17.103 7.88057 16.8904C7.58081 16.6778 7.35414 16.3777 7.23164 16.0312H11.7738C11.651 16.3787 11.4234 16.6794 11.1225 16.8921C10.8215 17.1048 10.462 17.2189 10.0935 17.2187ZM12.3973 12.4687H6.57851C6.28197 11.7731 5.88157 11.1264 5.39101 10.5509C4.73436 9.76902 4.31547 8.81536 4.1839 7.80282C4.05234 6.79028 4.21362 5.76124 4.64866 4.8375C5.08369 3.91376 5.77427 3.13399 6.63865 2.59049C7.50303 2.04699 8.50502 1.7625 9.52604 1.7707C10.5471 1.77891 11.5444 2.07946 12.3999 2.63678C13.2554 3.19411 13.9334 3.98487 14.3535 4.91548C14.7737 5.84609 14.9184 6.87759 14.7706 7.88789C14.6228 8.89818 14.1886 9.84498 13.5195 10.6162C13.0472 11.1697 12.6664 11.7951 12.3913 12.4687H12.3973Z" fill="black"/>
</svg>
