<svg width="31" height="31" viewBox="0 0 31 31" fill="none" xmlns="http://www.w3.org/2000/svg">
<g filter="url(#filter0_d_88_2116)">
<path d="M3.93934 21.9393C3.35355 22.5251 3.35355 23.4749 3.93934 24.0607C4.52513 24.6464 5.47487 24.6464 6.06066 24.0607L3.93934 21.9393ZM25.5 4C25.5 3.17157 24.8284 2.5 24 2.5H10.5C9.67157 2.5 9 3.17157 9 4C9 4.82843 9.67157 5.5 10.5 5.5H22.5V17.5C22.5 18.3284 23.1716 19 24 19C24.8284 19 25.5 18.3284 25.5 17.5V4ZM6.06066 24.0607L25.0607 5.06066L22.9393 2.93934L3.93934 21.9393L6.06066 24.0607Z" fill="white"/>
</g>
<defs>
<filter id="filter0_d_88_2116" x="0.5" y="0.5" width="30" height="30" filterUnits="userSpaceOnUse" color-interpolation-filters="sRGB">
<feFlood flood-opacity="0" result="BackgroundImageFix"/>
<feColorMatrix in="SourceAlpha" type="matrix" values="0 0 0 0 0 0 0 0 0 0 0 0 0 0 0 0 0 0 127 0" result="hardAlpha"/>
<feOffset dx="1" dy="2"/>
<feGaussianBlur stdDeviation="2"/>
<feComposite in2="hardAlpha" operator="out"/>
<feColorMatrix type="matrix" values="0 0 0 0 0 0 0 0 0 0 0 0 0 0 0 0 0 0 0.25 0"/>
<feBlend mode="normal" in2="BackgroundImageFix" result="effect1_dropShadow_88_2116"/>
<feBlend mode="normal" in="SourceGraphic" in2="effect1_dropShadow_88_2116" result="shape"/>
</filter>
</defs>
</svg>
